<svg xmlns="http://www.w3.org/2000/svg" xmlns:xlink="http://www.w3.org/1999/xlink" id="Layer_1" x="0" y="0" version="1.1" viewBox="0 0 40 40" xml:space="preserve" style="enable-background:new 0 0 40 40"><style type="text/css">.st0{fill:#ff13dc;fill-opacity:0}.st1{fill:#6e6e6e}</style><rect id="Canvas" width="36" height="36" x="2" y="4" class="st0"/><path d="M5,16h6c0.6,0,1,0.4,1,1v9.2c0,0.6-0.4,1-1,1H5c-0.6,0-1-0.4-1-1V17C4,16.4,4.4,16,5,16z" class="st1"/><path d="M31,8h4c0.6,0,1,0.4,1,1v4c0,0.6-0.4,1-1,1h-4c-0.6,0-1-0.4-1-1V9C30,8.4,30.4,8,31,8z" class="st1"/><path d="M31,18h4c0.6,0,1,0.4,1,1v4c0,0.6-0.4,1-1,1h-4c-0.6,0-1-0.4-1-1v-4C30,18.4,30.4,18,31,18z" class="st1"/><path d="M31,28h4c0.6,0,1,0.4,1,1v4c0,0.6-0.4,1-1,1h-4c-0.6,0-1-0.4-1-1v-4C30,28.4,30.4,28,31,28z" class="st1"/><path d="M28,11.5v-1c0-0.3-0.2-0.5-0.5-0.5h-7c-0.3,0-0.5,0.2-0.5,0.5V20h-5.5c-0.3,0-0.5,0.2-0.5,0.5v1	c0,0.3,0.2,0.5,0.5,0.5H20v9.5c0,0.3,0.2,0.5,0.5,0.5h7c0.3,0,0.5-0.2,0.5-0.5v-1c0-0.3-0.2-0.5-0.5-0.5H22v-8h5.5	c0.3,0,0.5-0.2,0.5-0.5v-1c0-0.3-0.2-0.5-0.5-0.5H22v-8h5.5C27.8,12,28,11.8,28,11.5z" class="st1"/></svg>