<svg xmlns="http://www.w3.org/2000/svg" xmlns:xlink="http://www.w3.org/1999/xlink" id="Layer_1" x="0" y="0" version="1.1" viewBox="0 0 40 40" xml:space="preserve" style="enable-background:new 0 0 40 40"><style type="text/css">.st0{fill:#ff13dc;fill-opacity:0}.st1{fill:#6e6e6e}</style><rect id="Canvas" width="36.4" height="36.4" x="1" y="1.7" class="st0"/><path d="M34.6,6.9L2.8,16.3c-0.3,0.1-0.4,0.4-0.3,0.6c0,0.1,0.1,0.2,0.3,0.3l8,4L34.6,6.9z" class="st1"/><path d="M14.2,23L26.3,29c0.5,0.3,1.1,0,1.4-0.4l0,0L37,8.1L14.2,23z" class="st1"/><path d="M11.2,25.2v7.7c0,0.4,0.3,0.7,0.7,0.7c0.2,0,0.3-0.1,0.5-0.2l5.4-4.6L11.2,25.2z" class="st1"/></svg>