<svg xmlns="http://www.w3.org/2000/svg" xmlns:xlink="http://www.w3.org/1999/xlink" id="Layer_1" x="0" y="0" version="1.1" viewBox="0 0 40 40" xml:space="preserve" style="enable-background:new 0 0 40 40"><style type="text/css">.st0{fill:#ff13dc;fill-opacity:0}.st1{fill:#6e6e6e}</style><rect id="Canvas" width="35.5" height="35.5" x="2" y="2" class="st0"/><ellipse cx="19.8" cy="8.9" class="st1" rx="15.8" ry="4.9"/><path d="M19.8,25.9c-4.9,0-14-1.2-15.8-3.9v8.6c0,2.7,7.1,4.9,15.8,4.9s15.8-2.2,15.8-4.9V22	C33.1,25,24.6,25.9,19.8,25.9z" class="st1"/><path d="M19.8,16.1c-4.9,0-14-1.2-15.8-4v6.6c0,2.7,7.1,4.9,15.8,4.9s15.8-2.2,15.8-4.9v-6.6	C33.1,15.2,24.6,16.1,19.8,16.1z" class="st1"/></svg>