<svg xmlns="http://www.w3.org/2000/svg" xmlns:xlink="http://www.w3.org/1999/xlink" id="Layer_1" x="0" y="0" version="1.1" viewBox="0 0 40 40" xml:space="preserve" style="enable-background:new 0 0 40 40"><style type="text/css">.st0{fill:#ff13dc;fill-opacity:0}.st1{fill:#6e6e6e}</style><rect id="Canvas" width="35.8" height="35.8" x="2.8" y="1.8" class="st0"/><ellipse cx="20.6" cy="8.7" class="st1" rx="15.9" ry="5"/><path d="M20.6,25.9c-4.9,0-14.1-1.2-15.9-4v8.7c0,2.7,7.1,5,15.9,5s15.9-2.2,15.9-5v-8.7C34.1,25,25.5,25.9,20.6,25.9z" class="st1"/><path d="M20.6,15.9c-4.9,0-14.1-1.2-15.9-4v6.7c0,2.7,7.1,5,15.9,5s15.9-2.2,15.9-5V12C34.1,15,25.5,15.9,20.6,15.9z" class="st1"/></svg>