<svg xmlns="http://www.w3.org/2000/svg" xmlns:xlink="http://www.w3.org/1999/xlink" id="Layer_1" x="0" y="0" version="1.1" viewBox="0 0 40 40" xml:space="preserve" style="enable-background:new 0 0 40 40"><style type="text/css">.st0{fill:#ff13dc;fill-opacity:0}.st1{fill:#6e6e6e}</style><rect id="Canvas" width="36.8" height="36.8" x="1.1" y="2.1" class="st0"/><path d="M4.2,14.4h6.1c0.6,0,1,0.5,1,1v9.4c0,0.6-0.5,1-1,1H4.2c-0.6,0-1-0.5-1-1v-9.4C3.2,14.9,3.6,14.4,4.2,14.4z" class="st1"/><path d="M30.8,6.2h4.1c0.6,0,1,0.5,1,1v4.1c0,0.6-0.5,1-1,1h-4.1c-0.6,0-1-0.5-1-1V7.3C29.8,6.7,30.2,6.2,30.8,6.2z" class="st1"/><path d="M30.8,16.5h4.1c0.6,0,1,0.5,1,1v4.1c0,0.6-0.5,1-1,1h-4.1c-0.6,0-1-0.5-1-1v-4.1C29.8,16.9,30.2,16.5,30.8,16.5	z" class="st1"/><path d="M30.8,26.7h4.1c0.6,0,1,0.5,1,1v4.1c0,0.6-0.5,1-1,1h-4.1c-0.6,0-1-0.5-1-1v-4.1C29.8,27.2,30.2,26.7,30.8,26.7	z" class="st1"/><path d="M27.7,9.8v-1c0-0.3-0.2-0.5-0.5-0.5h-7.2c-0.3,0-0.5,0.2-0.5,0.5v9.7h-5.6c-0.3,0-0.5,0.2-0.5,0.5v1	c0,0.3,0.2,0.5,0.5,0.5h5.6v9.7c0,0.3,0.2,0.5,0.5,0.5h7.2c0.3,0,0.5-0.2,0.5-0.5v-1c0-0.3-0.2-0.5-0.5-0.5h-5.6v-8.2h5.6	c0.3,0,0.5-0.2,0.5-0.5v-1c0-0.3-0.2-0.5-0.5-0.5h-5.6v-8.2h5.6C27.5,10.3,27.7,10.1,27.7,9.8z" class="st1"/></svg>